<svg width="158" height="184" viewBox="0 0 158 184" fill="none" xmlns="http://www.w3.org/2000/svg">
<g filter="url(#filter0_ddd_166_25)">
<rect width="157.933" height="183.032" fill="url(#paint0_linear_166_25)"/>
</g>
<mask id="mask0_166_25" style="mask-type:alpha" maskUnits="userSpaceOnUse" x="0" y="0" width="158" height="184">
<rect width="157.933" height="183.032" fill="url(#paint1_linear_166_25)"/>
</mask>
<g mask="url(#mask0_166_25)">
<path d="M23.3201 41.5309C23.3201 50.606 15.9632 57.9629 6.88812 57.9629C-2.18699 57.9629 -9.54382 50.606 -9.54382 41.5309C-9.54382 36.7462 -7.49879 32.4391 -4.23511 29.4361C-1.30862 26.7433 2.59773 25.099 6.88812 25.099C15.9632 25.099 23.3201 32.4558 23.3201 41.5309Z" fill="#D15842"/>
<path d="M70.7438 41.5309C70.7438 50.606 63.387 57.9629 54.3119 57.9629C45.2367 57.9629 37.8799 50.606 37.8799 41.5309C37.8799 40.3717 38 39.2405 38.2283 38.1491C39.7874 30.6964 46.396 25.099 54.3119 25.099C63.387 25.099 70.7438 32.4558 70.7438 41.5309Z" fill="#D15842"/>
<path d="M52.2902 21.8868C52.2902 30.1571 46.1804 37.0004 38.2283 38.1491C37.4544 38.2609 36.6631 38.3188 35.8583 38.3188C27.8825 38.3188 21.2339 32.6363 19.7402 25.099C19.5343 24.0602 19.4264 22.9861 19.4264 21.8868C19.4264 20.4431 19.6126 19.0428 19.9622 17.7088C21.8106 10.6571 28.2269 5.45486 35.8583 5.45486C44.9334 5.45486 52.2902 12.8117 52.2902 21.8868Z" fill="#D15842"/>
<path d="M23.3201 41.5309C23.3201 50.606 15.9632 57.9629 6.88812 57.9629H54.3119C45.2367 57.9629 37.8799 50.606 37.8799 41.5309C37.8799 40.3717 38 39.2405 38.2283 38.1491C37.4544 38.2609 36.6631 38.3188 35.8583 38.3188C27.8825 38.3188 21.2339 32.6363 19.7402 25.099H9.02152H6.88812C15.9632 25.099 23.3201 32.4558 23.3201 41.5309Z" fill="#D15842"/>
<path d="M19.7402 25.099C19.5343 24.0602 19.4264 22.9861 19.4264 21.8868C19.4264 20.4431 19.6126 19.0428 19.9622 17.7088C18.5891 20.1722 14.4786 25.099 9.02152 25.099H19.7402Z" fill="#D15842"/>
<path d="M102.559 28.5689C102.559 34.5795 97.6867 39.452 91.6762 39.452C85.6656 39.452 80.7931 34.5795 80.7931 28.5689C80.7931 25.3999 82.1475 22.5473 84.3091 20.5583C86.2474 18.7749 88.8346 17.6858 91.6762 17.6858C97.6867 17.6858 102.559 22.5584 102.559 28.5689Z" fill="#D15842"/>
<path d="M133.969 28.5689C133.969 34.5795 129.096 39.452 123.085 39.452C117.075 39.452 112.202 34.5795 112.202 28.5689C112.202 27.8011 112.282 27.0519 112.433 26.3291C113.466 21.3931 117.843 17.6858 123.085 17.6858C129.096 17.6858 133.969 22.5584 133.969 28.5689Z" fill="#D15842"/>
<path d="M121.747 15.5584C121.747 21.0359 117.7 25.5683 112.433 26.3291C111.921 26.4031 111.397 26.4414 110.863 26.4414C105.581 26.4414 101.178 22.6779 100.188 17.6858C100.052 16.9978 99.9804 16.2864 99.9804 15.5584C99.9804 14.6022 100.104 13.6748 100.335 12.7912C101.56 8.12083 105.809 4.67529 110.863 4.67529C116.874 4.67529 121.747 9.54781 121.747 15.5584Z" fill="#D15842"/>
<path d="M102.559 28.5689C102.559 34.5795 97.6867 39.452 91.6762 39.452H123.085C117.075 39.452 112.202 34.5795 112.202 28.5689C112.202 27.8011 112.282 27.0519 112.433 26.3291C111.921 26.4031 111.397 26.4414 110.863 26.4414C105.581 26.4414 101.178 22.6779 100.188 17.6858H93.0891H91.6762C97.6867 17.6858 102.559 22.5584 102.559 28.5689Z" fill="#D15842"/>
<path d="M100.188 17.6858C100.052 16.9978 99.9804 16.2864 99.9804 15.5584C99.9804 14.6022 100.104 13.6748 100.335 12.7912C99.4259 14.4228 96.7034 17.6858 93.0891 17.6858H100.188Z" fill="#D15842"/>
<circle cx="70.8786" cy="79.0327" r="14.5666" transform="rotate(-30 70.8786 79.0327)" fill="#D15842"/>
<path d="M76.7626 79.3844C77.2824 80.2848 77.4172 81.2205 77.167 82.1913C76.9167 83.1622 76.3787 84.0263 75.5531 84.7836L76.181 85.8711C76.3565 86.1752 76.3964 86.4874 76.3007 86.8077C76.2234 87.1329 76.0328 87.3833 75.7287 87.5589C75.4364 87.7277 75.1301 87.7642 74.8097 87.6685C74.4962 87.5845 74.2516 87.3904 74.0761 87.0864L73.509 86.1041C72.8437 86.4102 72.1873 86.6099 71.5395 86.7033C70.9035 86.7898 70.2183 86.7644 69.4841 86.627C69.0064 86.5286 68.6696 86.3099 68.4738 85.9708C68.3185 85.7018 68.2829 85.4106 68.3669 85.097C68.4442 84.7717 68.6231 84.5281 68.9038 84.366C69.126 84.2378 69.3653 84.1932 69.6217 84.2322C70.153 84.3153 70.633 84.35 71.0617 84.3363C71.4836 84.311 71.9044 84.2162 72.3241 84.0519L70.3493 80.6314C67.749 81.5558 65.8953 81.0591 64.7881 79.1413C64.2277 78.1707 64.096 77.1865 64.3931 76.1886C64.6833 75.1791 65.3083 74.3037 66.2681 73.5625L65.9339 72.9837C65.7583 72.6796 65.7126 72.3708 65.7966 72.0573C65.8856 71.7253 66.0821 71.4715 66.3861 71.296C66.6784 71.1272 66.9848 71.0906 67.3051 71.1863C67.6187 71.2704 67.8632 71.4644 68.0388 71.7684L68.4135 72.4174C69.5087 72.019 70.5366 71.9089 71.497 72.0872C71.9914 72.1603 72.3399 72.3723 72.5425 72.7231C72.6977 72.9921 72.7367 73.2892 72.6595 73.6145C72.5755 73.928 72.399 74.1625 72.13 74.3177C71.9546 74.419 71.7664 74.4575 71.5653 74.4333C71.0457 74.3435 70.4035 74.379 69.6388 74.5399L71.5124 77.7849C72.8019 77.399 73.8559 77.3206 74.6742 77.5497C75.4858 77.7672 76.1819 78.3788 76.7626 79.3844ZM66.8072 77.8586C67.03 78.2445 67.3351 78.4893 67.7225 78.5931C68.1031 78.6852 68.5736 78.663 69.134 78.5265L67.4529 75.6148C67.0275 75.9851 66.7629 76.364 66.6591 76.7513C66.5553 77.1387 66.6047 77.5078 66.8072 77.8586ZM74.3378 82.6787C74.5959 82.3426 74.7661 82.0027 74.8483 81.659C74.9238 81.3036 74.8838 80.9914 74.7286 80.7225C74.5395 80.395 74.2839 80.1684 73.9618 80.0425C73.6329 79.905 73.2283 79.8658 72.7479 79.9248L74.3378 82.6787Z" fill="#ED654C"/>
<circle cx="33.3873" cy="105.434" r="14.5666" transform="rotate(30 33.3873 105.434)" fill="#D15842"/>
<path d="M36.0243 110.706C35.5044 111.606 34.7615 112.191 33.7956 112.46C32.8297 112.728 31.8124 112.695 30.7437 112.358L30.1158 113.446C29.9403 113.75 29.6899 113.94 29.3646 114.018C29.0443 114.113 28.7321 114.073 28.4281 113.898C28.1357 113.729 27.9509 113.482 27.8737 113.157C27.7897 112.843 27.8354 112.534 28.0109 112.23L28.5781 111.248C27.9804 110.825 27.4792 110.356 27.0745 109.842C26.6815 109.335 26.3609 108.729 26.1128 108.024C25.9591 107.561 25.9802 107.16 26.176 106.821C26.3312 106.552 26.5657 106.375 26.8792 106.291C27.1996 106.196 27.5 106.229 27.7807 106.391C28.0029 106.519 28.1612 106.704 28.2556 106.946C28.4493 107.447 28.6592 107.88 28.8854 108.245C29.1183 108.598 29.4108 108.915 29.7629 109.196L31.7377 105.775C29.6371 103.986 29.1404 102.132 30.2476 100.214C30.808 99.2437 31.5945 98.6375 32.6072 98.3958C33.6266 98.1424 34.6972 98.246 35.819 98.7066L36.1531 98.1277C36.3287 97.8237 36.5732 97.6297 36.8868 97.5456C37.2188 97.4567 37.5368 97.5 37.8409 97.6755C38.1332 97.8443 38.318 98.0913 38.3953 98.4166C38.4793 98.7301 38.4336 99.0389 38.258 99.343L37.8833 99.992C38.776 100.741 39.3853 101.576 39.7111 102.497C39.895 102.962 39.8856 103.37 39.6831 103.721C39.5278 103.99 39.29 104.172 38.9697 104.268C38.6561 104.352 38.3648 104.316 38.0959 104.161C37.9205 104.059 37.793 103.916 37.7134 103.729C37.5314 103.235 37.1796 102.696 36.6579 102.114L34.7844 105.359C35.7634 106.283 36.3583 107.157 36.569 107.98C36.7865 108.792 36.6049 109.7 36.0243 110.706ZM32.368 101.322C32.1452 101.707 32.0857 102.094 32.1895 102.481C32.3001 102.857 32.5545 103.253 32.953 103.671L34.6341 100.759C34.1006 100.576 33.6402 100.536 33.2529 100.64C32.8655 100.743 32.5706 100.971 32.368 101.322ZM31.959 110.253C32.3791 110.309 32.7585 110.286 33.0973 110.185C33.4428 110.073 33.6932 109.882 33.8485 109.614C34.0376 109.286 34.106 108.951 34.054 108.61C34.0086 108.256 33.8403 107.886 33.5489 107.499L31.959 110.253Z" fill="#ED654C"/>
</g>
<defs>
<filter id="filter0_ddd_166_25" x="-24" y="-8" width="205.933" height="231.031" filterUnits="userSpaceOnUse" color-interpolation-filters="sRGB">
<feFlood flood-opacity="0" result="BackgroundImageFix"/>
<feColorMatrix in="SourceAlpha" type="matrix" values="0 0 0 0 0 0 0 0 0 0 0 0 0 0 0 0 0 0 127 0" result="hardAlpha"/>
<feOffset/>
<feGaussianBlur stdDeviation="0.5"/>
<feColorMatrix type="matrix" values="0 0 0 0 0 0 0 0 0 0 0 0 0 0 0 0 0 0 0.04 0"/>
<feBlend mode="normal" in2="BackgroundImageFix" result="effect1_dropShadow_166_25"/>
<feColorMatrix in="SourceAlpha" type="matrix" values="0 0 0 0 0 0 0 0 0 0 0 0 0 0 0 0 0 0 127 0" result="hardAlpha"/>
<feOffset dy="2"/>
<feGaussianBlur stdDeviation="3"/>
<feColorMatrix type="matrix" values="0 0 0 0 0 0 0 0 0 0 0 0 0 0 0 0 0 0 0.04 0"/>
<feBlend mode="normal" in2="effect1_dropShadow_166_25" result="effect2_dropShadow_166_25"/>
<feColorMatrix in="SourceAlpha" type="matrix" values="0 0 0 0 0 0 0 0 0 0 0 0 0 0 0 0 0 0 127 0" result="hardAlpha"/>
<feOffset dy="16"/>
<feGaussianBlur stdDeviation="12"/>
<feColorMatrix type="matrix" values="0 0 0 0 0 0 0 0 0 0 0 0 0 0 0 0 0 0 0.06 0"/>
<feBlend mode="normal" in2="effect2_dropShadow_166_25" result="effect3_dropShadow_166_25"/>
<feBlend mode="normal" in="SourceGraphic" in2="effect3_dropShadow_166_25" result="shape"/>
</filter>
<linearGradient id="paint0_linear_166_25" x1="78.9666" y1="0" x2="78.9666" y2="183.032" gradientUnits="userSpaceOnUse">
<stop stop-color="#ED654C"/>
<stop offset="1" stop-color="#D05842"/>
</linearGradient>
<linearGradient id="paint1_linear_166_25" x1="78.9666" y1="0" x2="78.9666" y2="183.032" gradientUnits="userSpaceOnUse">
<stop stop-color="#70BDF0"/>
<stop offset="1" stop-color="#90C9EF"/>
</linearGradient>
</defs>
</svg>
